# Blender v2.83.1 OBJ File: 'bullfinch.blend'
# www.blender.org
mtllib bullfinch.mtl
o Plane
v 0.012711 0.125310 0.048082
v 0.011417 0.116975 0.063994
v 0.022663 0.103587 0.063380
v 0.027659 0.085713 0.057788
v 0.020006 0.040483 0.029409
v 0.022264 0.106690 0.047751
v 0.029149 0.051353 0.016990
v 0.012824 0.033348 -0.014164
v 0.021470 0.037049 -0.016762
v 0.031755 0.063527 0.043083
v 0.008236 0.029954 0.021184
v 0.017182 0.035278 0.015606
v 0.011494 0.022032 0.024930
v 0.008898 0.030050 0.014377
v 0.017496 0.024709 0.022765
v 0.013723 0.022078 0.020760
v 0.017346 0.025444 0.025665
v 0.013341 0.022754 0.023902
v 0.012984 0.021270 0.019325
v 0.018079 0.026385 0.027581
v 0.019709 0.025564 0.021494
v 0.023964 -0.000007 0.044404
v 0.029894 -0.000007 0.044404
v 0.025641 0.002901 0.037913
v 0.017571 -0.000000 0.064271
v 0.026929 -0.000000 0.021684
v 0.036352 -0.000000 0.065074
v 0.026172 0.003837 0.044929
v 0.028034 -0.000000 0.052511
v 0.024869 -0.000000 0.052487
v 0.025763 -0.000004 0.044895
v 0.028534 -0.000005 0.044738
v 0.026770 -0.000000 0.068916
v -0.026770 -0.000000 0.068916
v -0.028534 -0.000005 0.044738
v -0.025763 -0.000004 0.044895
v -0.024869 -0.000000 0.052487
v -0.028034 -0.000000 0.052511
v -0.026172 0.003837 0.044929
v -0.036352 -0.000000 0.065074
v 0.000000 0.048231 0.057287
v -0.026929 -0.000000 0.021684
v -0.017571 -0.000000 0.064271
v -0.025641 0.002901 0.037913
v -0.029894 -0.000007 0.044404
v -0.023964 -0.000007 0.044404
v -0.019709 0.025564 0.021494
v -0.018079 0.026385 0.027581
v -0.012984 0.021270 0.019325
v -0.013341 0.022754 0.023902
v -0.017346 0.025444 0.025665
v -0.013723 0.022078 0.020760
v -0.017496 0.024709 0.022765
v -0.008898 0.030050 0.014377
v -0.011494 0.022032 0.024930
v -0.017182 0.035278 0.015606
v -0.008236 0.029954 0.021184
v -0.017111 0.038226 -0.016886
v -0.012824 0.033348 -0.014164
v -0.020006 0.040483 0.029409
v -0.027659 0.085713 0.057788
v -0.022663 0.103587 0.063380
v -0.011417 0.116975 0.063994
v -0.012711 0.125310 0.048082
v 0.000000 0.118193 0.075671
v 0.008967 0.123410 0.067448
v 0.000000 0.112450 0.075799
v 0.000000 0.100073 0.079051
v 0.000000 0.075583 0.073745
v 0.000000 0.027454 0.023644
v 0.000000 0.025023 -0.002090
v 0.000000 0.127537 0.086447
v 0.000000 0.134143 0.074875
v 0.017515 0.000268 -0.077018
v 0.000000 0.019257 -0.036851
v 0.000000 0.000268 -0.077018
v -0.017515 0.000268 -0.077018
v -0.010827 0.028583 -0.041270
v 0.000000 0.000255 -0.069450
v -0.009745 0.133749 0.057435
v 0.006113 0.129737 0.043979
v 0.006836 0.132803 0.066934
v 0.009745 0.133749 0.057435
v -0.006113 0.129737 0.043979
v -0.008967 0.123410 0.067448
v -0.006836 0.132803 0.066934
v 0.000000 0.138015 0.069094
v 0.000000 0.139760 0.057430
v 0.000000 0.134653 0.039184
v 0.000000 0.119350 0.025515
v 0.012882 0.022351 -0.053330
v 0.017111 0.038226 -0.016886
v 0.010827 0.028583 -0.041270
v 0.000000 0.074392 -0.010239
v -0.021470 0.037049 -0.016762
v -0.020307 0.072958 0.000052
v -0.012882 0.022351 -0.053330
v -0.029149 0.051353 0.016990
v 0.000000 0.028583 -0.041270
v 0.032943 0.087058 0.023037
v 0.020307 0.072958 0.000052
v -0.031755 0.063527 0.043083
v -0.032943 0.087058 0.023037
v -0.022264 0.106690 0.047751
v 0.000000 0.109241 0.020593
v 0.000000 0.093280 0.000774
vt 0.805837 0.935959
vt 0.872686 0.986667
vt 0.810640 0.987957
vt 0.861734 0.935959
vt 0.872686 0.885250
vt 0.810640 0.883961
vt 0.879285 0.927629
vt 0.926651 0.883961
vt 0.926651 0.906470
vt 0.974018 0.927629
vt 0.450990 0.459050
vt 0.587376 0.371198
vt 0.629703 0.432839
vt 0.629703 0.501478
vt 0.450990 0.501478
vt 0.616480 0.365485
vt 0.442551 0.401044
vt 0.450990 0.543906
vt 0.629703 0.570118
vt 0.587376 0.631759
vt 0.442551 0.601913
vt 0.603257 0.298131
vt 0.765547 0.433842
vt 0.850518 0.449549
vt 0.747343 0.463785
vt 0.747901 0.464118
vt 0.708745 0.431882
vt 0.784714 0.403336
vt 0.658185 0.457073
vt 0.671033 0.421523
vt 0.708745 0.342422
vt 0.671033 0.352781
vt 0.658185 0.317231
vt 0.850518 0.324755
vt 0.784714 0.370969
vt 0.765547 0.340462
vt 0.747901 0.310186
vt 0.747343 0.310519
vt 0.666031 0.387152
vt 0.712249 0.387152
vt 0.661327 0.386130
vt 0.636302 0.375304
vt 0.733457 0.298131
vt 0.733457 0.476173
vt 0.636302 0.399000
vt 0.661327 0.388174
vt 0.554141 0.291531
vt 0.442551 0.273568
vt 0.509101 0.142747
vt 0.640061 0.266853
vt 0.583536 0.003299
vt 0.640062 0.050023
vt 0.470661 0.118929
vt 0.542515 0.038113
vt 0.494758 0.132375
vt 0.510528 0.010238
vt 0.494010 0.005199
vt 0.771022 0.142748
vt 0.696587 0.003300
vt 0.737609 0.038113
vt 0.785365 0.132376
vt 0.809461 0.118930
vt 0.786113 0.005200
vt 0.725981 0.291532
vt 0.769595 0.010238
vt 0.837571 0.273569
vt 0.003299 0.527890
vt 0.018785 0.465354
vt 0.033374 0.530498
vt 0.042973 0.627141
vt 0.007480 0.558069
vt 0.037639 0.556764
vt 0.101896 0.532850
vt 0.057491 0.433466
vt 0.146981 0.393035
vt 0.176903 0.520864
vt 0.281983 0.511065
vt 0.085451 0.722238
vt 0.117683 0.593286
vt 0.268361 0.362769
vt 0.377267 0.447288
vt 0.423319 0.362769
vt 0.394999 0.519072
vt 0.921829 0.429640
vt 0.888820 0.323536
vt 0.902039 0.298131
vt 0.931703 0.421676
vt 0.976013 0.703938
vt 0.944253 0.691543
vt 0.909261 0.643985
vt 0.912357 0.759217
vt 0.944406 0.715359
vt 0.812580 0.877362
vt 0.867608 0.855958
vt 0.896961 0.864338
vt 0.897110 0.869822
vt 0.882190 0.450308
vt 0.971980 0.450308
vt 0.909574 0.467766
vt 0.891382 0.489885
vt 0.898664 0.853593
vt 0.902042 0.847112
vt 0.831276 0.806107
vt 0.870335 0.843857
vt 0.857117 0.315799
vt 0.868590 0.298131
vt 0.890691 0.429544
vt 0.983886 0.684398
vt 0.919357 0.300593
vt 0.902256 0.431545
vt 0.983886 0.719558
vt 0.880791 0.702949
vt 0.805837 0.837473
vt 0.986584 0.877362
vt 0.435952 0.451842
vt 0.950688 0.414976
vt 0.913897 0.637386
vt 0.917703 0.526331
vt 0.933278 0.634052
vt 0.882190 0.512270
vt 0.902270 0.632314
vt 0.882190 0.630866
vt 0.377268 0.278250
vt 0.394999 0.206466
vt 0.435952 0.273696
vt 0.281984 0.214473
vt 0.539000 0.680460
vt 0.623467 0.710918
vt 0.534012 0.703158
vt 0.939392 0.231579
vt 0.844170 0.232567
vt 0.907785 0.220158
vt 0.503836 0.692894
vt 0.442551 0.671800
vt 0.506404 0.680758
vt 0.907632 0.243974
vt 0.875736 0.176300
vt 0.947265 0.215959
vt 0.536577 0.685382
vt 0.533644 0.695858
vt 0.930503 0.496484
vt 0.943903 0.629067
vt 0.898242 0.505321
vt 0.947265 0.251119
vt 0.872640 0.291532
vt 0.946236 0.510494
vt 0.452593 0.710918
vt 0.905363 0.946064
vt 0.879285 0.934228
vt 0.969075 0.934228
vt 0.888477 0.973805
vt 0.465314 0.638357
vt 0.146981 0.332502
vt 0.101896 0.192687
vt 0.117684 0.132251
vt 0.176904 0.204674
vt 0.042974 0.098396
vt 0.085453 0.003299
vt 0.018786 0.260183
vt 0.057491 0.292072
vt 0.033375 0.195040
vt 0.037640 0.168773
vt 0.007481 0.167468
vt 0.003300 0.197647
vt 0.692794 0.841086
vt 0.731192 0.850206
vt 0.717230 0.868386
vt 0.636302 0.882048
vt 0.695439 0.806107
vt 0.442067 0.866667
vt 0.569349 0.919595
vt 0.500820 0.983281
vt 0.374371 0.771612
vt 0.478991 0.728837
vt 0.286324 0.841833
vt 0.286324 0.756150
vt 0.789612 0.575273
vt 0.653092 0.637386
vt 0.780411 0.549258
vt 0.662684 0.559251
vt 0.737546 0.486081
vt 0.875591 0.482772
vt 0.551971 0.815501
vt 0.130582 0.866667
vt 0.198277 0.771612
vt 0.792889 0.592667
vt 0.020678 0.815501
vt 0.093658 0.728837
vt 0.799238 0.842984
vt 0.754524 0.872693
vt 0.756700 0.840362
vt 0.670261 0.521312
vt 0.643799 0.517041
vt 0.636302 0.482772
vt 0.775425 0.935501
vt 0.799238 0.881673
vt 0.692067 0.889167
vt 0.732027 0.857230
vt 0.725982 0.868383
vt 0.739199 0.883568
vt 0.739315 0.892413
vt 0.743977 0.872848
vt 0.704507 0.816976
vt 0.654273 0.720627
vt 0.772391 0.717853
vt 0.736597 0.785288
vt 0.665902 0.757527
vt 0.636302 0.799508
vt 0.902668 0.117217
vt 0.857525 0.100652
vt 0.885948 0.084616
vt 0.844170 0.006222
vt 0.895303 0.048258
vt 0.871440 0.055384
vt 0.939073 0.017175
vt 0.902958 0.003299
vt 0.907927 0.078103
vt 0.929375 0.114932
vt 0.891376 0.058049
vt 0.901669 0.074805
vt 0.879656 0.058664
vt 0.889090 0.076448
vt 0.844170 0.155261
vt 0.640055 0.764629
vt 0.926264 0.057824
vt 0.636302 0.643985
vt 0.780109 0.673350
vt 0.778729 0.690996
vt 0.071828 0.983281
vt 0.003299 0.919595
vt 0.268247 0.939905
vt 0.142495 0.996701
vt 0.874192 0.773674
vt 0.274756 0.983483
vt 0.936269 0.127295
vt 0.304401 0.939905
vt 0.430153 0.996701
vt 0.297893 0.983483
vn 0.8232 0.4930 0.2814
vn 0.7209 -0.5236 0.4540
vn -0.7209 -0.5236 0.4540
vn -0.8232 0.4930 0.2814
vn -0.6705 0.0166 0.7417
vn 0.6705 0.0166 0.7417
vn 0.2720 -0.7289 0.6283
vn 0.0000 0.7839 -0.6209
vn 0.0000 -1.0000 -0.0017
vn 0.6887 -0.6264 0.3651
vn -0.6887 -0.6264 0.3651
vn -0.2720 -0.7289 0.6283
vn -0.6748 0.5250 -0.5187
vn -0.6656 0.6468 -0.3725
vn -0.7406 0.5625 -0.3676
vn -0.7461 0.4436 -0.4965
vn -0.9248 0.2266 0.3058
vn 0.9248 0.2266 0.3058
vn 0.7461 0.4436 -0.4965
vn 0.7406 0.5625 -0.3676
vn 0.6656 0.6468 -0.3725
vn 0.6748 0.5250 -0.5187
vn 0.5207 0.8443 0.1263
vn 0.6291 0.6459 0.4325
vn 0.6362 0.7238 0.2670
vn 0.7586 0.2059 0.6182
vn 0.9724 0.1204 0.1998
vn 0.5108 0.8279 -0.2317
vn -0.9724 0.1204 0.1998
vn -0.5108 0.8279 -0.2317
vn -0.5207 0.8443 0.1263
vn -0.6291 0.6459 0.4325
vn -0.6362 0.7238 0.2670
vn -0.7586 0.2059 0.6182
vn 0.9447 0.1637 -0.2843
vn -0.4499 0.5009 -0.7394
vn 0.7653 -0.6412 0.0563
vn 0.0000 -0.8884 0.4591
vn 0.9432 0.1654 -0.2880
vn 0.3816 0.6437 -0.6633
vn 0.6692 -0.7387 0.0806
vn 0.2485 -0.8772 0.4109
vn -0.6692 -0.7387 0.0806
vn -0.3816 0.6437 -0.6633
vn -0.9432 0.1654 -0.2880
vn -0.7653 -0.6412 0.0563
vn 0.4499 0.5009 -0.7394
vn -0.9447 0.1637 -0.2843
vn -0.2485 -0.8772 0.4109
vn 0.7322 -0.0840 0.6759
vn 0.9461 0.2489 0.2073
vn 0.7205 0.5884 0.3668
vn 0.5576 0.4360 0.7064
vn 0.5782 -0.1728 0.7974
vn 0.5327 0.2151 0.8185
vn 0.5628 -0.3819 0.7331
vn 0.5278 -0.1157 0.8414
vn 0.7518 0.3951 -0.5278
vn 0.8882 0.4545 0.0676
vn 0.9649 0.2612 0.0272
vn 0.5340 -0.4359 0.7245
vn 0.3735 -0.7892 0.4874
vn 0.8378 -0.5220 0.1599
vn -0.5112 -0.7273 -0.4579
vn -0.9004 -0.4348 -0.0161
vn -0.6875 0.5658 0.4552
vn 0.6806 0.5992 0.4215
vn -0.0009 -1.0000 0.0006
vn 0.6468 0.7580 -0.0842
vn -0.9540 0.2726 -0.1244
vn -0.0000 -1.0000 0.0052
vn 0.0011 -1.0000 0.0007
vn 0.6908 0.6175 0.3762
vn 0.6868 0.6944 -0.2148
vn -0.6743 0.2950 0.6769
vn 0.8123 -0.0961 -0.5752
vn 0.9113 0.4078 -0.0563
vn -0.0001 -1.0000 0.0006
vn -0.8203 0.5074 -0.2641
vn 0.8414 0.5365 0.0648
vn 0.0000 -1.0000 0.0000
vn -0.8653 0.4911 0.1001
vn 0.0000 -1.0000 -0.0003
vn 0.5493 -0.6155 0.5653
vn 0.7980 -0.5994 0.0627
vn -0.5798 0.3973 0.7113
vn 0.6000 -0.2929 -0.7444
vn -0.6000 -0.2929 -0.7444
vn 0.5798 0.3973 0.7113
vn -0.7980 -0.5994 0.0627
vn -0.5493 -0.6155 0.5653
vn 0.8653 0.4911 0.1001
vn -0.8414 0.5365 0.0648
vn 0.8203 0.5074 -0.2641
vn 0.0001 -1.0000 0.0006
vn -0.9113 0.4078 -0.0563
vn -0.8123 -0.0961 -0.5752
vn 0.6743 0.2950 0.6769
vn -0.6868 0.6944 -0.2148
vn -0.6908 0.6175 0.3762
vn -0.0011 -1.0000 0.0007
vn 0.9540 0.2726 -0.1244
vn -0.6468 0.7580 -0.0842
vn 0.0009 -1.0000 0.0006
vn -0.6806 0.5992 0.4215
vn 0.6875 0.5658 0.4552
vn 0.9004 -0.4348 -0.0161
vn 0.5112 -0.7273 -0.4579
vn -0.8378 -0.5220 0.1599
vn -0.3735 -0.7892 0.4874
vn -0.5340 -0.4359 0.7245
vn -0.9649 0.2612 0.0272
vn -0.8882 0.4545 0.0676
vn -0.7518 0.3951 -0.5278
vn -0.5278 -0.1157 0.8414
vn -0.5628 -0.3819 0.7331
vn -0.5327 0.2151 0.8185
vn -0.5782 -0.1728 0.7974
vn -0.5576 0.4360 0.7064
vn -0.7205 0.5884 0.3668
vn -0.9461 0.2489 0.2073
vn -0.7322 -0.0840 0.6759
vn -0.8793 -0.4436 -0.1734
vn 0.3821 -0.7951 0.4710
vn -0.9365 0.3148 0.1546
vn -0.8796 -0.0129 -0.4756
vn -0.4278 0.4553 -0.7808
vn 0.7486 -0.6630 -0.0091
vn 0.8029 -0.5909 -0.0792
vn 0.6221 -0.7724 0.1281
vn -0.9939 -0.0964 -0.0543
vn -0.5347 0.5569 -0.6356
vn 0.5347 0.5569 -0.6356
vn -0.2471 -0.8707 0.4252
vn 0.9939 -0.0964 -0.0543
vn 0.4481 -0.2715 -0.8518
vn 0.2946 -0.9555 0.0152
vn 0.9654 0.1070 -0.2379
vn -0.5529 -0.0324 0.8326
vn 0.4664 -0.8515 0.2398
vn -0.8818 -0.4624 -0.0924
vn 0.3793 -0.4054 -0.8317
vn 0.9469 -0.1652 0.2759
vn -0.4796 0.2061 0.8529
vn 0.3620 -0.9280 0.0876
vn 0.5369 -0.8430 -0.0328
vn 0.5294 -0.8481 -0.0225
vn 0.4278 0.4553 -0.7808
vn -0.5294 -0.8481 -0.0225
vn -0.5369 -0.8430 -0.0328
vn -0.3620 -0.9280 0.0876
vn 0.4796 0.2061 0.8529
vn -0.9469 -0.1652 0.2759
vn -0.3793 -0.4054 -0.8317
vn 0.8818 -0.4624 -0.0924
vn -0.4664 -0.8515 0.2398
vn 0.5529 -0.0324 0.8326
vn -0.9654 0.1070 -0.2379
vn -0.2946 -0.9555 0.0152
vn -0.4481 -0.2715 -0.8518
vn 0.8796 -0.0129 -0.4756
vn 0.2471 -0.8707 0.4252
vn 0.9365 0.3148 0.1546
vn 0.9850 0.0805 0.1529
vn 0.5377 0.7578 -0.3696
vn -0.6221 -0.7724 0.1281
vn -0.8029 -0.5909 -0.0792
vn -0.7486 -0.6630 -0.0091
vn 0.4959 0.6763 -0.5447
vn 0.7537 0.2877 -0.5909
vn -0.3821 -0.7951 0.4710
vn 0.8793 -0.4436 -0.1734
vn -0.9850 0.0805 0.1529
vn -0.5377 0.7578 -0.3696
vn -0.4959 0.6763 -0.5447
vn -0.7537 0.2877 -0.5909
g Plane_Plane_1
usemtl 1
s off
f 72/1/1 66/2/1 73/3/1
f 66/2/2 72/1/2 65/4/2
f 85/5/3 65/4/3 72/1/3
f 72/1/4 73/6/4 85/5/4
g Plane_Plane_2
usemtl 2
f 85/7/5 67/8/5 65/9/5
f 66/10/6 65/9/6 67/8/6
f 93/11/7 79/12/7 74/13/7
f 93/11/8 76/14/8 99/15/8
f 74/13/9 79/12/9 76/16/9
f 93/11/10 75/17/10 79/12/10
f 93/11/8 74/13/8 76/14/8
f 78/18/8 76/14/8 77/19/8
f 78/18/11 79/20/11 75/21/11
f 77/22/9 76/16/9 79/12/9
f 78/18/8 99/15/8 76/14/8
f 78/18/12 77/19/12 79/20/12
f 84/23/13 90/24/13 64/25/13
f 84/23/14 64/26/14 80/27/14
f 80/27/15 89/28/15 84/23/15
f 90/24/16 84/23/16 89/28/16
f 80/27/17 85/29/17 86/30/17
f 83/31/18 82/32/18 66/33/18
f 90/34/19 89/35/19 81/36/19
f 83/31/20 81/36/20 89/35/20
f 81/36/21 83/31/21 1/37/21
f 81/36/22 1/38/22 90/34/22
f 87/39/23 83/31/23 88/40/23
f 82/32/24 87/41/24 73/42/24
f 87/39/25 82/32/25 83/31/25
f 66/33/26 82/32/26 73/42/26
f 1/43/27 83/31/27 66/33/27
f 83/31/28 89/35/28 88/40/28
f 64/44/29 85/29/29 80/27/29
f 80/27/30 88/40/30 89/28/30
f 87/39/31 88/40/31 80/27/31
f 86/30/32 73/45/32 87/46/32
f 87/39/33 80/27/33 86/30/33
f 85/29/34 73/45/34 86/30/34
f 101/47/35 7/48/35 9/49/35
f 94/50/36 91/51/36 99/52/36
f 8/53/37 93/54/37 92/55/37
f 93/54/38 99/56/38 91/51/38
f 101/47/39 9/49/39 91/51/39
f 94/50/40 101/47/40 91/51/40
f 8/53/41 75/57/41 93/54/41
f 95/58/42 97/59/42 78/60/42 58/61/42
f 59/62/43 78/60/43 75/63/43
f 94/50/44 97/59/44 96/64/44
f 96/64/45 97/59/45 95/58/45
f 78/60/38 97/59/38 99/65/38
f 59/62/46 58/61/46 78/60/46
f 94/50/47 99/52/47 97/59/47
f 96/64/48 95/58/48 98/66/48
f 9/49/49 92/55/49 93/54/49 91/51/49
g Plane_Plane_3
usemtl 3
f 66/67/50 67/68/50 2/69/50
f 1/70/51 66/71/51 2/72/51
f 2/72/52 3/73/52 1/70/52
f 67/68/53 3/73/53 2/69/53
f 68/74/54 69/75/54 3/73/54
f 67/68/55 68/74/55 3/73/55
f 4/76/56 69/75/56 10/77/56
f 69/75/57 4/76/57 3/73/57
f 90/78/58 1/70/58 6/79/58
f 3/73/59 6/79/59 1/70/59
f 3/73/60 4/76/60 6/79/60
f 69/75/61 41/80/61 10/77/61
f 5/81/62 41/80/62 70/82/62
f 5/81/63 7/83/63 10/77/63
f 16/84/64 24/85/64 22/86/64
f 18/87/65 16/84/65 22/86/65
f 28/88/66 29/89/66 27/90/66
f 28/88/67 25/91/67 30/92/67
f 27/93/68 29/94/68 32/95/68 23/96/68
f 23/97/69 26/98/69 24/99/69
f 24/99/70 26/98/70 22/100/70
f 32/95/71 31/101/71 22/102/71 23/96/71
f 25/103/72 22/102/72 31/101/72 30/104/72
f 28/105/73 23/106/73 17/107/73
f 28/88/74 27/90/74 23/108/74
f 22/86/75 28/109/75 18/87/75
f 15/110/76 23/106/76 24/85/76
f 23/106/77 15/110/77 17/107/77
f 29/94/78 30/104/78 31/101/78 32/95/78
f 28/88/79 22/111/79 25/91/79
f 29/89/80 28/88/80 33/112/80
f 30/104/81 29/94/81 33/113/81
f 28/88/82 30/92/82 33/112/82
f 23/96/83 22/102/83 26/114/83
f 5/81/84 10/77/84 41/80/84
f 5/81/85 12/115/85 7/83/85
f 28/109/86 17/116/86 18/87/86
f 16/84/87 15/110/87 24/85/87
f 52/117/88 44/118/88 53/119/88
f 39/120/89 50/121/89 51/122/89
f 60/123/90 98/124/90 56/125/90
f 60/123/91 41/80/91 102/126/91
f 45/127/83 42/128/83 46/129/83
f 39/130/92 34/131/92 37/132/92
f 37/133/81 34/134/81 38/135/81
f 38/136/93 34/131/93 39/130/93
f 39/130/94 43/137/94 46/138/94
f 38/135/95 35/139/95 36/140/95 37/133/95
f 45/141/96 51/142/96 53/119/96
f 53/119/97 44/118/97 45/141/97
f 46/143/98 50/121/98 39/120/98
f 39/130/99 45/144/99 40/145/99
f 39/146/100 51/142/100 45/141/100
f 43/147/101 37/133/101 36/140/101 46/129/101
f 35/139/71 45/127/71 46/129/71 36/140/71
f 44/148/102 46/149/102 42/150/102
f 45/151/103 44/148/103 42/150/103
f 40/152/104 45/127/104 35/139/104 38/135/104
f 39/130/105 37/132/105 43/137/105
f 39/130/106 40/145/106 38/136/106
f 50/121/107 46/143/107 52/117/107
f 52/117/108 46/143/108 44/118/108
f 60/123/109 102/126/109 98/124/109
f 60/123/110 70/82/110 41/80/110
f 69/153/111 102/126/111 41/80/111
f 62/154/112 104/155/112 61/156/112
f 62/154/113 64/157/113 104/155/113
f 90/158/114 104/155/114 64/157/114
f 69/153/115 62/154/115 61/156/115
f 61/156/116 102/126/116 69/153/116
f 67/159/117 62/154/117 68/160/117
f 68/160/118 62/154/118 69/153/118
f 67/159/119 63/161/119 62/154/119
f 63/162/120 64/157/120 62/154/120
f 64/157/121 63/162/121 85/163/121
f 85/164/122 63/161/122 67/159/122
g Plane_Plane_4
usemtl 4
f 11/165/123 19/166/123 13/167/123
f 5/168/124 70/169/124 11/165/124
f 103/170/125 61/171/125 104/172/125
f 103/170/126 96/173/126 98/174/126
f 106/175/127 94/176/127 96/173/127
f 92/177/128 7/178/128 8/179/128
f 7/178/129 12/180/129 8/179/129
f 8/179/130 71/181/130 75/182/130
f 103/170/131 98/174/131 102/183/131
f 106/175/132 96/173/132 103/170/132
f 106/175/133 100/184/133 101/185/133
f 7/178/134 92/177/134 9/186/134
f 100/184/135 10/187/135 7/188/135
f 14/189/136 21/190/136 19/191/136
f 14/192/137 11/193/137 70/194/137
f 5/195/138 21/190/138 12/196/138
f 11/165/139 20/197/139 5/168/139
f 16/198/140 18/199/140 13/167/140 19/166/140
f 18/199/140 17/200/140 20/201/140 13/167/140
f 17/200/140 15/202/140 21/190/140 20/201/140
f 15/202/140 16/198/140 19/166/140 21/190/140
f 11/165/141 14/203/141 19/166/141
f 14/189/142 12/196/142 21/190/142
f 5/195/143 20/201/143 21/190/143
f 11/165/144 13/167/144 20/197/144
f 14/192/145 70/194/145 71/181/145
f 12/180/146 14/192/146 71/181/146
f 12/180/147 71/181/147 8/179/147
f 106/175/148 101/185/148 94/176/148
f 56/204/149 59/205/149 71/206/149
f 56/204/150 71/206/150 54/207/150
f 54/207/151 71/206/151 70/208/151
f 57/209/152 48/210/152 55/211/152
f 60/212/153 47/213/153 48/214/153
f 54/215/154 47/213/154 56/216/154
f 57/209/155 49/217/155 54/218/155
f 53/219/156 47/213/156 49/217/156 52/220/156
f 51/221/156 48/214/156 47/213/156 53/219/156
f 50/222/156 55/211/156 48/214/156 51/221/156
f 52/220/156 49/217/156 55/211/156 50/222/156
f 57/209/157 60/223/157 48/210/157
f 60/212/158 56/216/158 47/213/158
f 54/207/159 70/208/159 57/224/159
f 54/215/160 49/225/160 47/213/160
f 100/184/161 7/188/161 101/185/161
f 98/226/162 95/227/162 58/228/162
f 100/184/163 6/229/163 4/230/163
f 100/184/164 4/230/164 10/187/164
f 105/231/165 6/232/165 100/184/165
f 59/205/166 75/233/166 71/206/166
f 98/226/167 59/205/167 56/204/167
f 58/228/168 59/205/168 98/226/168
f 105/231/169 100/184/169 106/175/169
f 90/234/170 6/232/170 105/231/170
f 60/223/171 57/209/171 70/235/171
f 57/209/172 55/211/172 49/217/172
f 103/170/173 102/183/173 61/171/173
f 105/236/174 103/170/174 104/237/174
f 105/236/175 106/175/175 103/170/175
f 90/238/176 105/236/176 104/237/176
